<svg width="78" height="60" viewBox="0 0 78 60" fill="none" xmlns="http://www.w3.org/2000/svg">
<g id="1 1" clip-path="url(#clip0_770_606)">
<path id="Vector" d="M59.8889 0H5.68977C4.18119 0.00178693 2.73492 0.6019 1.66825 1.66868C0.601581 2.73547 0.00162422 4.1818 0 5.69038V39.0514C0.00162422 40.56 0.601581 42.0063 1.66825 43.0731C2.73492 44.1399 4.18119 44.74 5.68977 44.7418H45.4586V42.5324H5.68977C4.76695 42.5313 3.88227 42.1641 3.2298 41.5115C2.57733 40.859 2.21035 39.9742 2.20938 39.0514V17.6941H63.3693V20.9124H65.5787V5.69038C65.5771 4.1818 64.9771 2.73547 63.9104 1.66868C62.8438 0.6019 61.3975 0.00178693 59.8889 0ZM2.20938 8.57055V5.69038C2.21035 4.76756 2.57733 3.88282 3.2298 3.23023C3.88227 2.57765 4.76695 2.21052 5.68977 2.20938H59.8889C60.8117 2.21052 61.6964 2.57765 62.3489 3.23023C63.0014 3.88282 63.3683 4.76756 63.3693 5.69038V8.57055H2.20938Z" fill="#F5F5F5"/>
<path id="Vector_2" d="M40.202 26.8218H8.98158C8.11964 26.8218 7.4209 27.5205 7.4209 28.3825V28.3831C7.4209 29.245 8.11964 29.9438 8.98158 29.9438H40.202C41.0639 29.9438 41.7626 29.245 41.7626 28.3831V28.3825C41.7626 27.5205 41.0639 26.8218 40.202 26.8218Z" fill="#F5F5F5"/>
<path id="Vector_3" d="M23.9194 34.3147H8.98158C8.11964 34.3147 7.4209 35.0134 7.4209 35.8754V35.876C7.4209 36.7379 8.11964 37.4367 8.98158 37.4367H23.9194C24.7814 37.4367 25.4801 36.7379 25.4801 35.876V35.8754C25.4801 35.0134 24.7814 34.3147 23.9194 34.3147Z" fill="#F5F5F5"/>
<path id="Vector_4" d="M63.2495 60.0001L62.8611 59.854L62.7843 59.8246C60.3982 58.8936 56.9197 57.0524 53.9124 53.5776C50.386 49.5006 49.1107 45.0764 48.6621 42.082C48.5886 41.5902 48.5519 41.0935 48.5522 40.5962V27.6695L49.5753 27.5934C54.2162 27.2489 58.7069 25.7968 62.6708 23.3588L63.2489 23.0034L63.8277 23.3588C67.7917 25.7971 72.2826 27.2492 76.9237 27.5934L77.9462 27.6695V40.5956C77.9465 41.0933 77.91 41.5903 77.837 42.0826C77.3883 45.0764 76.113 49.5 72.586 53.5776C69.5788 57.0536 66.0996 58.8936 63.711 59.8258L63.638 59.854L63.2495 60.0001ZM50.7598 29.7034V40.5962C50.7595 40.984 50.7881 41.3713 50.8451 41.7549C51.2501 44.4596 52.4015 48.4555 55.5818 52.1316C57.6737 54.5366 60.2985 56.4196 63.2471 57.6305C66.196 56.4201 68.8212 54.537 70.913 52.1316C74.0939 48.4555 75.2446 44.4602 75.6503 41.7549C75.7072 41.3711 75.7355 40.9836 75.735 40.5956V29.7034C71.3285 29.2302 67.0727 27.827 63.2489 25.5866C59.4242 27.8273 55.1673 29.2305 50.7598 29.7034Z" fill="#F5F5F5"/>
<path id="Vector_5" d="M57.6689 38.3948V44.0686C57.6689 44.7411 57.8014 45.407 58.0588 46.0282C58.3161 46.6495 58.6933 47.2141 59.1688 47.6896C59.6443 48.1651 60.2088 48.5423 60.8301 48.7996C61.4514 49.057 62.1173 49.1894 62.7898 49.1894H63.5342C64.8924 49.1894 66.195 48.6499 67.1554 47.6896C68.1159 46.7293 68.6555 45.4268 68.6557 44.0686V38.3948H57.6689ZM64.1682 43.3591C64.1162 43.3974 64.0739 43.4474 64.0448 43.5051C64.0156 43.5628 64.0005 43.6265 64.0007 43.6912V46.0718H62.3197V43.6912C62.3198 43.6265 62.3046 43.5628 62.2755 43.5051C62.2464 43.4475 62.2042 43.3974 62.1521 43.3591C61.9522 43.2157 61.7891 43.0268 61.6762 42.8081C61.5633 42.5894 61.5039 42.3471 61.5028 42.101C61.5028 41.2259 62.2448 40.5164 63.1599 40.5164C64.0749 40.5164 64.8169 41.2259 64.8169 42.101C64.8157 42.347 64.7563 42.5893 64.6436 42.8079C64.5308 43.0266 64.3679 43.2155 64.1682 43.3591Z" fill="#F5F5F5"/>
<path id="Vector_6" d="M67.8826 37.8529H65.6732V35.023C65.6732 34.0233 64.7305 33.2101 63.5718 33.2101H62.7556C61.5969 33.2101 60.6542 34.0233 60.6542 35.023V37.8529H58.4448V35.023C58.4448 32.8051 60.3786 31.0007 62.7556 31.0007H63.5718C65.9487 31.0007 67.8826 32.8051 67.8826 35.023V37.8529Z" fill="#F5F5F5"/>
</g>
<defs>
<clipPath id="clip0_770_606">
<rect width="77.9463" height="60" fill="white"/>
</clipPath>
</defs>
</svg>
