<svg width="31" height="36" viewBox="0 0 31 36" fill="none" xmlns="http://www.w3.org/2000/svg">
<path id="avg_time" d="M3.55714 18.8571H8.57143C8.88571 18.8571 9.18571 18.9357 9.47143 19.0929C9.75714 19.25 9.97143 19.4857 10.1143 19.8L12 23.5714L17.3143 12.9429C17.6286 12.2857 18.1429 11.9571 18.8571 11.9571C19.5714 11.9571 20.0857 12.2857 20.4 12.9429L23.3571 18.8571H27.3C26.8714 15.9429 25.5429 13.5 23.3143 11.5286C21.0857 9.55714 18.4571 8.57143 15.4286 8.57143C12.4 8.57143 9.77143 9.55714 7.54286 11.5286C5.31429 13.5 3.98571 15.9429 3.55714 18.8571ZM15.4286 32.5714C18.4571 32.5714 21.0857 31.5857 23.3143 29.6143C25.5429 27.6429 26.8714 25.2 27.3 22.2857H22.2857C21.9714 22.2857 21.6714 22.2071 21.3857 22.05C21.1 21.8929 20.8857 21.6571 20.7429 21.3429L18.8571 17.5714L13.5429 28.2C13.2286 28.8571 12.7143 29.1857 12 29.1857C11.2857 29.1857 10.7714 28.8571 10.4571 28.2L7.5 22.2857H3.55714C3.98571 25.2 5.31429 27.6429 7.54286 29.6143C9.77143 31.5857 12.4 32.5714 15.4286 32.5714ZM15.4286 36C13.3143 36 11.3214 35.5929 9.45 34.7786C7.57857 33.9643 5.94286 32.8571 4.54286 31.4571C3.14286 30.0571 2.03571 28.4214 1.22143 26.55C0.407143 24.6786 0 22.6857 0 20.5714H3.42857C3.42857 23.8857 4.6 26.7143 6.94286 29.0571C9.28572 31.4 12.1143 32.5714 15.4286 32.5714C18.7429 32.5714 21.5714 31.4 23.9143 29.0571C26.2571 26.7143 27.4286 23.8857 27.4286 20.5714H30.8571C30.8571 22.6857 30.45 24.6786 29.6357 26.55C28.8214 28.4214 27.7143 30.0571 26.3143 31.4571C24.9143 32.8571 23.2786 33.9643 21.4071 34.7786C19.5357 35.5929 17.5429 36 15.4286 36ZM0 20.5714C0 18.4571 0.407143 16.4643 1.22143 14.5929C2.03571 12.7214 3.14286 11.0857 4.54286 9.68571C5.94286 8.28571 7.57857 7.17857 9.45 6.36429C11.3214 5.55 13.3143 5.14286 15.4286 5.14286C17.2 5.14286 18.9 5.42857 20.5286 6C22.1571 6.57143 23.6857 7.4 25.1143 8.48571L27.5143 6.08571L29.9143 8.48571L27.5143 10.8857C28.6 12.3143 29.4286 13.8429 30 15.4714C30.5714 17.1 30.8571 18.8 30.8571 20.5714H27.4286C27.4286 17.2571 26.2571 14.4286 23.9143 12.0857C21.5714 9.74286 18.7429 8.57143 15.4286 8.57143C12.1143 8.57143 9.28572 9.74286 6.94286 12.0857C4.6 14.4286 3.42857 17.2571 3.42857 20.5714H0ZM10.2857 3.42857V0H20.5714V3.42857H10.2857ZM15.4286 32.5714C12.1143 32.5714 9.28572 31.4 6.94286 29.0571C4.6 26.7143 3.42857 23.8857 3.42857 20.5714C3.42857 17.2571 4.6 14.4286 6.94286 12.0857C9.28572 9.74286 12.1143 8.57143 15.4286 8.57143C18.7429 8.57143 21.5714 9.74286 23.9143 12.0857C26.2571 14.4286 27.4286 17.2571 27.4286 20.5714C27.4286 23.8857 26.2571 26.7143 23.9143 29.0571C21.5714 31.4 18.7429 32.5714 15.4286 32.5714Z" fill="#1F1F1F"/>
</svg>
