<svg width="40" height="40" viewBox="0 0 40 40" fill="none" xmlns="http://www.w3.org/2000/svg">
<g id="business_center">
<mask id="mask0_777_379" style="mask-type:alpha" maskUnits="userSpaceOnUse" x="0" y="0" width="40" height="40">
<rect id="Bounding box" width="40" height="40" fill="#D9D9D9"/>
</mask>
<g mask="url(#mask0_777_379)">
<path id="business_center_2" d="M6.66683 35C5.75016 35 4.96544 34.6736 4.31266 34.0208C3.65989 33.368 3.3335 32.5833 3.3335 31.6666V13.3333C3.3335 12.4166 3.65989 11.6319 4.31266 10.9791C4.96544 10.3264 5.75016 9.99996 6.66683 9.99996H13.3335V6.66663C13.3335 5.74996 13.6599 4.96524 14.3127 4.31246C14.9654 3.65969 15.7502 3.3333 16.6668 3.3333H23.3335C24.2502 3.3333 25.0349 3.65969 25.6877 4.31246C26.3404 4.96524 26.6668 5.74996 26.6668 6.66663V9.99996H33.3335C34.2502 9.99996 35.0349 10.3264 35.6877 10.9791C36.3404 11.6319 36.6668 12.4166 36.6668 13.3333V31.6666C36.6668 32.5833 36.3404 33.368 35.6877 34.0208C35.0349 34.6736 34.2502 35 33.3335 35H6.66683ZM16.6668 9.99996H23.3335V6.66663H16.6668V9.99996ZM33.3335 25H25.0002V28.3333H15.0002V25H6.66683V31.6666H33.3335V25ZM18.3335 25H21.6668V21.6666H18.3335V25ZM6.66683 21.6666H15.0002V18.3333H25.0002V21.6666H33.3335V13.3333H6.66683V21.6666Z" fill="#1F1F1F"/>
</g>
</g>
</svg>
