<svg width="34" height="36" viewBox="0 0 34 36" fill="none" xmlns="http://www.w3.org/2000/svg">
<path id="calendar_clock" d="M3.33333 10.5H26.6667V7.16667H3.33333V10.5ZM3.33333 33.8333C2.41667 33.8333 1.63194 33.5069 0.979167 32.8542C0.326389 32.2014 0 31.4167 0 30.5V7.16667C0 6.25 0.326389 5.46528 0.979167 4.8125C1.63194 4.15972 2.41667 3.83333 3.33333 3.83333H5V0.5H8.33333V3.83333H21.6667V0.5H25V3.83333H26.6667C27.5833 3.83333 28.3681 4.15972 29.0208 4.8125C29.6736 5.46528 30 6.25 30 7.16667V16.625C29.4722 16.375 28.9306 16.1667 28.375 16C27.8194 15.8333 27.25 15.7083 26.6667 15.625V13.8333H3.33333V30.5H13.8333C14.0278 31.1111 14.2569 31.6944 14.5208 32.25C14.7847 32.8056 15.0972 33.3333 15.4583 33.8333H3.33333ZM25 35.5C22.6944 35.5 20.7292 34.6875 19.1042 33.0625C17.4792 31.4375 16.6667 29.4722 16.6667 27.1667C16.6667 24.8611 17.4792 22.8958 19.1042 21.2708C20.7292 19.6458 22.6944 18.8333 25 18.8333C27.3056 18.8333 29.2708 19.6458 30.8958 21.2708C32.5208 22.8958 33.3333 24.8611 33.3333 27.1667C33.3333 29.4722 32.5208 31.4375 30.8958 33.0625C29.2708 34.6875 27.3056 35.5 25 35.5ZM27.7917 31.125L28.9583 29.9583L25.8333 26.8333V22.1667H24.1667V27.5L27.7917 31.125Z" fill="#1F1F1F"/>
</svg>
