<svg xmlns="http://www.w3.org/2000/svg" viewBox="0 0 2000 1000"><defs><style>.a,.b{fill:#040404;}.b{font-size:378px;font-family:Roboto-Light, Roboto Light;font-weight:300;}.c{letter-spacing:0.03em;}.d{letter-spacing:-0.01em;}</style></defs><path class="a" d="M330.44,490.51h0l-.57-1.37-.23.53h0L335,503c.08-.16.17-.39.3-.69Z"/><path class="a" d="M478.89,337.53a32,32,0,0,0-15.22-6,30.84,30.84,0,0,0-3.33-.2,33.79,33.79,0,0,0-23.08,9.07,35.55,35.55,0,0,0-6.62,8.28c-.46.79-.88,1.56-1.24,2.3h0c-.12.25-.23.52-.34.78l-.36.85-.78,1.88a0,0,0,0,1,0,0q-1.89,4.56-3.79,9.11-2.47,5.91-4.92,11.82l0,0c0,.07-.05.13-.07.21h0l-.32.73h-.11l-18-1.47a29.2,29.2,0,0,0-29.21,17.55c-25,58.06-36.38,84.54-41.58,96.62l.57,1.37h0l4.89,11.76c3.66-8.5,31.3-72.73,45.51-105.72a19,19,0,0,1,19-11.42l14.72,1.21L329.3,591.41h-2.86l-14.29-34.36L226.82,351.76l-1-2.53-.59-1.43-2.71-6.51h0l-4.25-10.2h-51.8l5.48,13.41L274.54,591.41l4.24,10.21h57.34l4.24-10.21h0l5.89-14.19,2.12-5.11,54.82-131.87.06,0q11.06-26.53,22.09-53l34,2.79a29.71,29.71,0,0,0,27.27-13.53,28.29,28.29,0,0,0,4-10.17A29.24,29.24,0,0,0,478.89,337.53ZM285.59,591.41l-104-250.12h29.8l-1.3-3.14,0,0,1.31,3.16h-.05L302.73,561l12.66,30.44ZM480.64,364.47a18.33,18.33,0,0,1-2.58,6.52,19.49,19.49,0,0,1-17.88,8.85q-15.36-1.24-30.69-2.52h0c1.34-3.25,2.7-6.5,4-9.74q2.48-6,5-11.88a17.45,17.45,0,0,1,1.16-2.33l.17-.29c.18-.3.38-.59.56-.85a24.33,24.33,0,0,1,19.89-10.7,21.07,21.07,0,0,1,2.25.14,21.69,21.69,0,0,1,10.39,4.13A19,19,0,0,1,480.64,364.47Z"/><text class="b" transform="translate(493.35 601.22)">ISI<tspan class="c" x="367.04" y="0">T</tspan><tspan class="d" x="565.48" y="0">Y</tspan><tspan x="767.33" y="0">FY</tspan></text><polyline class="a" points="166.23 330.61 166.43 331.08 171.91 344.5"/></svg>