<svg width="61" height="24" viewBox="0 0 61 24" fill="none" xmlns="http://www.w3.org/2000/svg">
<g id="Frame 277">
<path id="Vector" d="M28.9948 11.7003V18.7181H26.731V1.3623H32.6168C34.0506 1.3623 35.4088 1.89052 36.4653 2.8715C37.5217 3.77702 38.0499 5.1353 38.0499 6.56904C38.0499 8.00277 37.5217 9.28559 36.4653 10.2666C35.4088 11.2475 34.126 11.7758 32.6168 11.7758L28.9948 11.7003ZM28.9948 3.47518V9.51197H32.7677C33.5978 9.51197 34.4279 9.21013 34.9561 8.60645C36.1634 7.47456 36.1634 5.58806 35.0315 4.45616L34.9561 4.3807C34.3524 3.77702 33.5978 3.39972 32.7677 3.47518H28.9948Z" fill="#F5F5F5"/>
<path id="Vector_2" d="M43.2565 6.49341C44.9167 6.49341 46.1995 6.94617 47.1805 7.85169C48.1614 8.7572 48.6142 9.96456 48.6142 11.4738V18.7179H46.5013V17.0578H46.4259C45.5203 18.4161 44.2375 19.0952 42.7283 19.0952C41.4455 19.0952 40.3136 18.7179 39.4081 17.9633C38.578 17.2087 38.0498 16.1523 38.0498 15.0204C38.0498 13.813 38.5026 12.832 39.4081 12.0774C40.3136 11.3228 41.5964 11.021 43.1056 11.021C44.4639 11.021 45.5203 11.2474 46.3504 11.7756V11.2474C46.3504 10.4928 46.0486 9.73818 45.4449 9.28542C44.8412 8.7572 44.0866 8.45536 43.2565 8.45536C41.9737 8.45536 40.9927 8.98358 40.3136 10.04L38.3516 8.83266C39.559 7.24801 41.1437 6.49341 43.2565 6.49341ZM40.3891 15.0958C40.3891 15.6995 40.6909 16.2277 41.1437 16.5296C41.6719 16.9069 42.2756 17.1333 42.8792 17.1333C43.7848 17.1333 44.6903 16.756 45.3694 16.0768C46.124 15.3977 46.5013 14.5676 46.5013 13.6621C45.8222 13.1339 44.8412 12.832 43.5584 12.832C42.6529 12.832 41.8983 13.0584 41.2946 13.5112C40.6909 13.8885 40.3891 14.4167 40.3891 15.0958Z" fill="#F5F5F5"/>
<path id="Vector_3" d="M60.8389 6.87061L53.3684 24H51.1046L53.8966 18.0387L48.9917 6.94606H51.4064L54.953 15.473H55.0285L58.4996 6.94606H60.8389V6.87061Z" fill="#F5F5F5"/>
<path id="Vector_4" d="M20.015 10.191C20.015 9.51184 19.9396 8.8327 19.8641 8.15356H10.4316V12.002H15.7893C15.5629 13.2094 14.8838 14.3413 13.8273 15.0204V17.5106H17.0721C18.9586 15.775 20.015 13.2094 20.015 10.191Z" fill="#4285F4"/>
<path id="Vector_5" d="M10.4316 19.9253C13.1482 19.9253 15.412 19.0198 17.0721 17.5106L13.8273 15.0204C12.9218 15.6241 11.7899 16.0014 10.4316 16.0014C7.86597 16.0014 5.60218 14.2658 4.84758 11.8511H1.52734V14.4167C3.26292 17.8124 6.65862 19.9253 10.4316 19.9253Z" fill="#34A853"/>
<path id="Vector_6" d="M4.84769 11.8511C4.39493 10.6437 4.39493 9.28547 4.84769 8.00265V5.43701H1.52745C0.093714 8.22903 0.093714 11.5493 1.52745 14.4167L4.84769 11.8511Z" fill="#FBBC04"/>
<path id="Vector_7" d="M10.4318 3.92797C11.8656 3.92797 13.2238 4.45619 14.2803 5.43717L17.1478 2.5697C15.3367 0.909578 12.922 -0.0714 10.5073 0.00405985C6.7343 0.00405985 3.26314 2.11694 1.60303 5.51263L4.92326 8.07827C5.6024 5.66355 7.8662 3.92797 10.4318 3.92797Z" fill="#EA4335"/>
</g>
</svg>
