<svg width="23" height="24" viewBox="0 0 23 24" fill="none" xmlns="http://www.w3.org/2000/svg">
<g id="Frame 276">
<path id="path10168" d="M1.90776 0C1.08697 0 0.418457 0.667336 0.418457 1.48695V22.513C0.418457 23.3333 1.08697 24 1.90776 24H20.876C21.698 24 22.3659 23.3333 22.3659 22.513H22.2689C22.2689 23.2797 21.6445 23.9042 20.876 23.9042H1.90776C1.14106 23.9042 0.516059 23.2797 0.516059 22.513V1.48695C0.516059 0.720841 1.14106 0.0958377 1.90776 0.0958377H20.876C21.6445 0.0958377 22.2689 0.720841 22.2689 1.48695V22.513H22.3659V1.48695C22.3659 0.667336 21.698 0 20.876 0H1.90776Z" fill="#0023A0"/>
<path id="path10172" d="M22.3168 15.3162V22.5128C22.3168 23.3077 21.6724 23.9516 20.8763 23.9516H1.90808C1.11198 23.9516 0.46875 23.3077 0.46875 22.5128V15.3162H22.3168Z" fill="#0023A0"/>
<path id="path10184" d="M15.7854 20.0136V22.0991H15.0699V20.0136L13.2119 16.945L13.928 16.7927L15.4344 19.3592L16.9037 16.8468H17.6957L15.7854 20.0136ZM11.2327 17.6761L10.3943 19.8921H12.0776L11.2327 17.6761ZM12.9372 22.1528L12.3204 20.5242H10.152L9.55761 22.0993H8.83324L10.8893 16.8235H11.6055L13.6304 22.0005L12.9372 22.1528ZM7.12039 17.4794H6.48127V19.3356H7.07394C7.79125 19.3356 8.21694 19.0387 8.21694 18.3849C8.21694 17.7834 7.83711 17.4794 7.12039 17.4794ZM7.03631 19.9682H6.48127V22.099H5.76514V16.8468H7.15919C8.27044 16.8468 8.94072 17.3871 8.94072 18.3608C8.94072 19.435 8.17931 19.9682 7.03631 19.9682Z" fill="white"/>
<path id="path10188" d="M14.19 2.04492L11.3478 9.71076L11.0726 8.15443C10.3659 6.24649 8.99297 4.34562 7.20557 3.53423L9.62091 13.2691L12.6954 13.2668L17.2662 2.04492H14.19Z" fill="#0023A0"/>
<path id="path10192" d="M8.84054 2.0415H4.2909L4.23975 2.33725C7.88334 3.26799 10.0735 5.45344 11.0742 8.15513L10.1564 2.98989C9.98178 2.27845 9.47319 2.06561 8.84054 2.0415Z" fill="#FFA000"/>
</g>
</svg>
