<svg width="44" height="24" viewBox="0 0 44 24" fill="none" xmlns="http://www.w3.org/2000/svg">
<g id="Group">
<path id="Vector" d="M39.2457 0H4.34201C2.05104 0 0.193848 1.85719 0.193848 4.14816V19.8518C0.193848 22.1428 2.05104 24 4.34201 24H39.2457C41.5367 24 43.3938 22.1428 43.3938 19.8518V4.14816C43.3938 1.85719 41.5367 0 39.2457 0Z" fill="#FFB3C7"/>
<g id="Group_2">
<path id="Vector_2" fill-rule="evenodd" clip-rule="evenodd" d="M39.3493 14.0869C38.7841 14.0869 38.326 14.5493 38.326 15.1196C38.326 15.6899 38.7841 16.1523 39.3493 16.1523C39.9145 16.1523 40.3728 15.6899 40.3728 15.1196C40.3728 14.5492 39.9145 14.0869 39.3493 14.0869ZM35.9823 13.2886C35.9823 12.5077 35.3209 11.8749 34.505 11.8749C33.689 11.8749 33.0275 12.5077 33.0275 13.2886C33.0275 14.0694 33.6889 14.7024 34.505 14.7024C35.321 14.7024 35.9823 14.0694 35.9823 13.2886ZM35.9878 10.5408H37.6182V16.0361H35.9878V15.6849C35.5272 16.0019 34.9711 16.1882 34.3714 16.1882C32.7845 16.1882 31.4979 14.89 31.4979 13.2885C31.4979 11.6871 32.7845 10.3889 34.3714 10.3889C34.9711 10.3889 35.5272 10.5753 35.9878 10.8924V10.5408ZM22.9395 11.2566V10.5409H21.2701V16.0361H22.9432V13.4705C22.9432 12.6049 23.873 12.1396 24.5181 12.1396C24.5247 12.1396 24.5309 12.1402 24.5375 12.1403V10.5414C23.8753 10.5414 23.2663 10.8273 22.9395 11.2566ZM18.7811 13.2886C18.7811 12.5077 18.1196 11.8749 17.3037 11.8749C16.4878 11.8749 15.8262 12.5078 15.8262 13.2886C15.8262 14.0694 16.4877 14.7025 17.3037 14.7025C18.1197 14.7025 18.7811 14.0694 18.7811 13.2886ZM18.7865 10.5409H20.4171V16.0361H18.7865V15.6849C18.3259 16.0019 17.7699 16.1882 17.1702 16.1882C15.5832 16.1882 14.2966 14.89 14.2966 13.2885C14.2966 11.6871 15.5832 10.389 17.1702 10.389C17.7699 10.389 18.3259 10.5753 18.7865 10.8924V10.5409ZM28.6006 10.3931C27.9493 10.3931 27.3328 10.5971 26.9207 11.1601V10.5412H25.2972V16.0361H26.9406V13.1484C26.9406 12.3127 27.496 11.9035 28.1646 11.9035C28.8812 11.9035 29.2932 12.3355 29.2932 13.137V16.0361H30.9218V12.5416C30.9218 11.2628 29.9142 10.3931 28.6006 10.3931ZM11.9215 16.0361H13.6281V8.09204H11.9215V16.0361ZM4.4248 16.0383H6.23191V8.0906H4.4248V16.0383ZM10.7454 8.0906C10.7454 9.8112 10.0809 11.4118 8.89687 12.6015L11.3948 16.0386H9.16279L6.4481 12.3033L7.14872 11.7738C8.31061 10.8956 8.97704 9.55314 8.97704 8.09058L10.7454 8.0906Z" fill="#0A0B09"/>
</g>
</g>
</svg>
