<svg width="25" height="24" viewBox="0 0 25 24" fill="none" xmlns="http://www.w3.org/2000/svg">
<g id="layer1">
<path id="path3078" d="M0.366211 0H24.3662V12.9559L23.1783 14.8121L24.3662 16.464V24H0.366211V11.7865L1.10867 10.9327L0.366211 10.116V0Z" fill="#016FD0"/>
<path id="path3082" d="M5.0249 16.7238V12.9558H9.0145L9.44254 13.5138L9.88473 12.9558H24.366V16.4639C24.366 16.4639 23.9873 16.72 23.5493 16.7238H15.5307L15.0481 16.1298V16.7238H13.4667V15.7099C13.4667 15.7099 13.2506 15.8514 12.7836 15.8514H12.2453V16.7238H9.85089L9.42346 16.1538L8.98947 16.7238H5.0249Z" fill="white"/>
<path id="path3080" d="M0.366211 10.116L1.26588 8.01855H2.82176L3.33234 9.19346V8.01855H5.26644L5.57039 8.86774L5.86505 8.01855H14.5472V8.44547C14.5472 8.44547 15.0036 8.01855 15.7537 8.01855L18.5707 8.0284L19.0725 9.18793V8.01855H20.691L21.1365 8.68461V8.01855H22.7699V11.7865H21.1365L20.7096 11.1183V11.7865H18.3316L18.0924 11.1926H17.4531L17.2179 11.7865H15.6052C14.9598 11.7865 14.5472 11.3683 14.5472 11.3683V11.7865H12.1156L11.633 11.1926V11.7865H2.59127L2.35229 11.1926H1.71503L1.47774 11.7865H0.366211V10.116Z" fill="white"/>
<path id="path3046" d="M1.58455 8.48315L0.371094 11.3045H1.16112L1.38502 10.7395H2.68664L2.90938 11.3045H3.7168L2.5045 8.48315H1.58455ZM2.03351 9.13977L2.43026 10.127H1.63559L2.03351 9.13977Z" fill="#016FD0"/>
<path id="path3048" d="M3.80029 11.304V8.48267L4.92296 8.48684L5.57594 10.3059L6.21329 8.48267H7.32697V11.304H6.62164V9.22513L5.87397 11.304H5.25539L4.50563 9.22513V11.304H3.80029Z" fill="#016FD0"/>
<path id="path3050" d="M7.80957 11.304V8.48267H10.1112V9.11376H8.52233V9.59635H10.0741V10.1903H8.52233V10.6915H10.1112V11.304H7.80957Z" fill="#016FD0"/>
<path id="path3052" d="M10.5195 8.48315V11.3045H11.2249V10.3022H11.5219L12.3676 11.3045H13.2295L12.3014 10.2651C12.6823 10.2329 13.0752 9.90601 13.0752 9.39847C13.0752 8.80476 12.6092 8.48315 12.0891 8.48315H10.5195ZM11.2249 9.11424H12.0311C12.2245 9.11424 12.3652 9.26554 12.3652 9.41123C12.3652 9.59867 12.1829 9.70821 12.0416 9.70821H11.2249V9.11424Z" fill="#016FD0"/>
<path id="path3054" d="M14.083 11.304H13.3628V8.48267H14.083V11.304Z" fill="#016FD0"/>
<path id="path3056" d="M15.791 11.304H15.6356C14.8834 11.304 14.4268 10.7114 14.4268 9.90494C14.4268 9.07852 14.8783 8.48267 15.8281 8.48267H16.6077V9.15088H15.7996C15.4141 9.15088 15.1414 9.45179 15.1414 9.9119C15.1414 10.4583 15.4532 10.6878 15.9024 10.6878H16.088L15.791 11.304Z" fill="#016FD0"/>
<path id="path3058" d="M17.3258 8.48315L16.1123 11.3045H16.9023L17.1262 10.7395H18.4278L18.6506 11.3045H19.458L18.2457 8.48315H17.3258ZM17.7747 9.13977L18.1715 10.127H17.3768L17.7747 9.13977Z" fill="#016FD0"/>
<path id="path3060" d="M19.54 11.304V8.48267H20.4368L21.5818 10.2553V8.48267H22.2871V11.304H21.4194L20.2454 9.48499V11.304H19.54Z" fill="#016FD0"/>
<path id="path3062" d="M5.50781 16.2413V13.4199H7.80944V14.051H6.22057V14.5336H7.77231V15.1276H6.22057V15.6287H7.80944V16.2413H5.50781Z" fill="#016FD0"/>
<path id="path3064" d="M16.7856 16.2413V13.4199H19.0873V14.051H17.4984V14.5336H19.0427V15.1276H17.4984V15.6287H19.0873V16.2413H16.7856Z" fill="#016FD0"/>
<path id="path3066" d="M7.89875 16.2413L9.0194 14.848L7.87207 13.4199H8.7607L9.444 14.3028L10.1296 13.4199H10.9834L9.85119 14.8306L10.9739 16.2413H10.0854L9.42195 15.3724L8.77462 16.2413H7.89875Z" fill="#016FD0"/>
<path id="path3068" d="M11.0576 13.4204V16.2418H11.7815V15.3508H12.524C13.1522 15.3508 13.6284 15.0175 13.6284 14.3694C13.6284 13.8324 13.2549 13.4204 12.6156 13.4204H11.0576ZM11.7815 14.0585H12.5634C12.7664 14.0585 12.9114 14.1829 12.9114 14.3833C12.9114 14.5716 12.7671 14.7081 12.5611 14.7081H11.7815V14.0585Z" fill="#016FD0"/>
<path id="path3072" d="M13.9346 13.4199V16.2413H14.6399V15.2389H14.9369L15.7826 16.2413H16.6445L15.7165 15.2018C16.0974 15.1697 16.4903 14.8428 16.4903 14.3352C16.4903 13.7415 16.0243 13.4199 15.5042 13.4199H13.9346ZM14.6399 14.051H15.4462C15.6396 14.051 15.7803 14.2023 15.7803 14.348C15.7803 14.5354 15.598 14.645 15.4566 14.645H14.6399V14.051Z" fill="#016FD0"/>
<path id="path3074" d="M19.4138 16.2413V15.6287H20.8254C21.0342 15.6287 21.1247 15.5159 21.1247 15.3921C21.1247 15.2735 21.0345 15.1536 20.8254 15.1536H20.1875C19.633 15.1536 19.3242 14.8157 19.3242 14.3086C19.3242 13.8562 19.607 13.4199 20.4309 13.4199H21.8045L21.5075 14.0547H20.3196C20.0925 14.0547 20.0226 14.1739 20.0226 14.2877C20.0226 14.4046 20.109 14.5336 20.2825 14.5336H20.9507C21.5688 14.5336 21.837 14.8842 21.837 15.3434C21.837 15.837 21.5381 16.2413 20.917 16.2413H19.4138Z" fill="#016FD0"/>
<path id="path3076" d="M22.0026 16.2413V15.6287H23.4142C23.6231 15.6287 23.7136 15.5159 23.7136 15.3921C23.7136 15.2735 23.6234 15.1536 23.4142 15.1536H22.7764C22.2219 15.1536 21.9131 14.8157 21.9131 14.3086C21.9131 13.8562 22.1959 13.4199 23.0198 13.4199H24.3934L24.0964 14.0547H22.9084C22.6814 14.0547 22.6115 14.1739 22.6115 14.2877C22.6115 14.4046 22.6978 14.5336 22.8713 14.5336H23.5395C24.1576 14.5336 24.4258 14.8842 24.4258 15.3434C24.4258 15.837 24.127 16.2413 23.5059 16.2413H22.0026Z" fill="#016FD0"/>
</g>
</svg>
