<svg width="32" height="24" viewBox="0 0 32 24" fill="none" xmlns="http://www.w3.org/2000/svg">
<g id="logos:maestro" clip-path="url(#clip0_777_672)">
<path id="Vector" d="M20.1487 17.0431H11.8003V2.03979H20.1487V17.0431Z" fill="#6C6BBD"/>
<path id="Vector_2" d="M12.3305 9.54175C12.3305 6.49821 13.7554 3.78718 15.9745 2.04012C14.3518 0.762573 12.3036 0 10.078 0C4.80887 0 0.537598 4.27188 0.537598 9.54175C0.537598 14.8115 4.80887 19.0834 10.078 19.0834C12.3037 19.0834 14.3518 18.3208 15.9745 17.0433C13.7554 15.2962 12.3305 12.5852 12.3305 9.54175Z" fill="#D32011"/>
<path id="Vector_3" d="M31.4117 9.54175C31.4117 14.8115 27.1404 19.0834 21.8712 19.0834C19.6455 19.0834 17.5974 18.3208 15.9741 17.0433C18.1938 15.2962 19.6187 12.5852 19.6187 9.54175C19.6187 6.49821 18.1938 3.78718 15.9741 2.04012C17.5974 0.762573 19.6456 0 21.8712 0C27.1404 0 31.4117 4.27188 31.4117 9.54175Z" fill="#0099DF"/>
<path id="Vector_4" d="M22.9738 21.2823C23.0848 21.2823 23.2443 21.3035 23.3663 21.3514L23.1964 21.8707C23.0799 21.8229 22.9634 21.8071 22.8519 21.8071C22.4915 21.8071 22.3113 22.0399 22.3113 22.4586V23.8793H21.7599V21.346H22.3059V21.6535C22.4491 21.4309 22.6559 21.2823 22.9738 21.2823ZM20.9367 21.8495H20.0358V22.9942C20.0358 23.2484 20.1257 23.4182 20.4017 23.4182C20.5449 23.4182 20.7249 23.3703 20.8888 23.275L21.0477 23.7465C20.873 23.8683 20.5976 23.9431 20.3591 23.9431C19.707 23.9431 19.4796 23.593 19.4796 23.0045V21.8495H18.9652V21.346H19.4796V20.5774H20.0358V21.346H20.9367V21.8495ZM13.8822 22.3901C13.941 22.0243 14.1632 21.775 14.5556 21.775C14.9104 21.775 15.1385 21.9975 15.1967 22.3901H13.8822ZM15.7695 22.6127C15.7639 21.8227 15.2762 21.2823 14.5659 21.2823C13.824 21.2823 13.3047 21.8229 13.3047 22.6126C13.3047 23.4176 13.8453 23.9423 14.6035 23.9423C14.9851 23.9423 15.3345 23.8471 15.642 23.5875L15.3715 23.1793C15.1598 23.3491 14.8892 23.4444 14.6351 23.4444C14.2801 23.4444 13.9568 23.28 13.8773 22.8245H15.7585C15.7639 22.7552 15.7695 22.6866 15.7695 22.6127ZM18.1911 21.9927C18.0375 21.8968 17.7251 21.7749 17.4017 21.7749C17.0996 21.7749 16.9194 21.8865 16.9194 22.0721C16.9194 22.2414 17.11 22.2892 17.3484 22.3208L17.6081 22.3579C18.1595 22.4379 18.4931 22.6709 18.4931 23.1162C18.4931 23.5984 18.069 23.9429 17.338 23.9429C16.9244 23.9429 16.5428 23.8368 16.2405 23.6142L16.5003 23.1847C16.6859 23.3279 16.962 23.4498 17.3435 23.4498C17.7196 23.4498 17.921 23.3388 17.921 23.1423C17.921 22.9997 17.7779 22.9196 17.4758 22.8778L17.2161 22.8407C16.6489 22.7607 16.3414 22.5064 16.3414 22.0934C16.3414 21.5899 16.755 21.2823 17.3963 21.2823C17.7991 21.2823 18.1649 21.3728 18.4294 21.5474L18.1911 21.9927ZM24.9882 21.8057C24.8749 21.8057 24.77 21.8259 24.6723 21.8653C24.5777 21.9036 24.4919 21.9605 24.4198 22.0327C24.3473 22.1066 24.2904 22.1943 24.2524 22.2906C24.2119 22.3907 24.1917 22.5009 24.1918 22.6211C24.1918 22.7419 24.2118 22.8516 24.2524 22.9517C24.2931 23.052 24.3489 23.1379 24.4198 23.2096C24.4919 23.2817 24.5777 23.3387 24.6723 23.377C24.77 23.417 24.8749 23.4364 24.9882 23.4364C25.1016 23.4364 25.2073 23.4171 25.3042 23.377C25.3992 23.3388 25.4854 23.2819 25.5579 23.2096C25.6301 23.138 25.6859 23.0518 25.7272 22.9517C25.7678 22.8516 25.7878 22.7419 25.7878 22.6211C25.7879 22.5009 25.7677 22.3907 25.7272 22.2906C25.6859 22.1905 25.6301 22.1043 25.5579 22.0327C25.4855 21.9604 25.3993 21.9035 25.3043 21.8653C25.2039 21.8251 25.0966 21.8049 24.9884 21.8059M24.9884 21.2824C25.185 21.2824 25.3669 21.3165 25.5343 21.385C25.7018 21.453 25.8466 21.5468 25.9688 21.6664C26.0917 21.787 26.1892 21.9309 26.2557 22.0898C26.3248 22.2531 26.3594 22.4302 26.3594 22.6213C26.3594 22.8123 26.3248 22.9894 26.2557 23.1526C26.1893 23.3117 26.0917 23.4559 25.9686 23.5767C25.8468 23.6962 25.7017 23.7897 25.5345 23.8582C25.3669 23.9261 25.1849 23.9601 24.9884 23.9601C24.7918 23.9601 24.6098 23.9261 24.4424 23.8582C24.275 23.7897 24.1312 23.6962 24.0099 23.5767C23.8876 23.4556 23.7904 23.3115 23.7241 23.1526C23.6549 22.9894 23.6204 22.8123 23.6204 22.6213C23.6204 22.4302 23.6549 22.2531 23.7241 22.0899C23.7905 21.9312 23.8876 21.7873 24.0099 21.6664C24.1341 21.545 24.2811 21.4493 24.4424 21.385C24.6098 21.3165 24.7918 21.2824 24.9884 21.2824ZM10.6623 22.6126C10.6623 22.1674 10.9542 21.8016 11.4309 21.8016C11.8865 21.8016 12.1941 22.1516 12.1941 22.6127C12.1941 23.0738 11.8865 23.4231 11.4309 23.4231C10.9542 23.4231 10.6623 23.0578 10.6623 22.6126ZM12.7134 22.6127V21.3461H12.1625V21.6537C11.9872 21.4256 11.7228 21.2824 11.3624 21.2824C10.652 21.2824 10.0957 21.8387 10.0957 22.6127C10.0957 23.3862 10.652 23.9431 11.3624 23.9431C11.7228 23.9431 11.9871 23.7999 12.1625 23.5718V23.8794H12.7134V22.6127ZM9.60787 23.8794V22.2895C9.60787 21.6907 9.22628 21.2879 8.61181 21.2824C8.28847 21.277 7.95416 21.3777 7.72127 21.7331C7.54652 21.4522 7.27058 21.2824 6.88356 21.2824C6.61353 21.2824 6.34845 21.3619 6.14161 21.6585V21.3461H5.59082V23.8794H6.14704V22.4751C6.14704 22.0352 6.3909 21.8018 6.76694 21.8018C7.13285 21.8018 7.31846 22.0401 7.31846 22.4697V23.8794H7.8748V22.475C7.8748 22.0351 8.12951 21.8016 8.4947 21.8016C8.87146 21.8016 9.05164 22.0399 9.05164 22.4695V23.8794H9.60787Z" fill="#F5F5F5"/>
</g>
<defs>
<clipPath id="clip0_777_672">
<rect width="30.88" height="24" fill="white" transform="translate(0.534668)"/>
</clipPath>
</defs>
</svg>
