<svg width="32" height="24" viewBox="0 0 32 24" fill="none" xmlns="http://www.w3.org/2000/svg">
<g id="logos:mastercard" clip-path="url(#clip0_777_665)">
<path id="Vector" d="M5.94925 23.8808V22.2923C5.94925 21.6833 5.57852 21.2863 4.94306 21.2863C4.62539 21.2863 4.28119 21.3921 4.04288 21.7363C3.85763 21.4451 3.59291 21.2863 3.19576 21.2863C2.93092 21.2863 2.66632 21.3656 2.45442 21.6569V21.3392H1.89844V23.8808H2.45442V22.4776C2.45442 22.0276 2.69273 21.8157 3.06346 21.8157C3.43396 21.8157 3.61944 22.054 3.61944 22.4776V23.8808H4.17542V22.4776C4.17542 22.0276 4.44003 21.8157 4.78423 21.8157C5.15496 21.8157 5.34021 22.054 5.34021 22.4776V23.8808H5.94925ZM14.1829 21.3392H13.2829V20.5714H12.7269V21.3392H12.2239V21.8421H12.7268V23.0071C12.7268 23.5897 12.9651 23.9337 13.6005 23.9337C13.8389 23.9337 14.1035 23.8544 14.289 23.7485L14.13 23.2719C13.9712 23.3778 13.7859 23.4043 13.6535 23.4043C13.3888 23.4043 13.2829 23.2455 13.2829 22.9806V21.8421H14.1829V21.3392ZM18.8956 21.2861C18.578 21.2861 18.3662 21.4451 18.2338 21.6569V21.3392H17.6778V23.8808H18.2338V22.4512C18.2338 22.0276 18.419 21.7893 18.7632 21.7893C18.8691 21.7893 19.0015 21.8158 19.1074 21.8422L19.2662 21.3128C19.1604 21.2863 19.0015 21.2861 18.8956 21.2861ZM11.7738 21.5511C11.5089 21.3657 11.1383 21.2864 10.7412 21.2864C10.1058 21.2864 9.68228 21.604 9.68228 22.1071C9.68228 22.5308 9.99995 22.769 10.5559 22.8484L10.8206 22.875C11.1119 22.9278 11.2707 23.0073 11.2707 23.1397C11.2707 23.3249 11.059 23.4574 10.6882 23.4574C10.3175 23.4574 10.0264 23.3249 9.84099 23.1926L9.57627 23.6162C9.86752 23.828 10.2647 23.9339 10.6617 23.9339C11.403 23.9339 11.8267 23.5898 11.8267 23.1132C11.8267 22.6631 11.4825 22.4248 10.953 22.3454L10.6882 22.3189C10.4499 22.2923 10.2647 22.2395 10.2647 22.0807C10.2647 21.8953 10.4499 21.7894 10.7412 21.7894C11.059 21.7894 11.3766 21.9217 11.5355 22.0012L11.7738 21.5511ZM26.547 21.2864C26.2293 21.2864 26.0175 21.4452 25.8851 21.657V21.3393H25.3291V23.8809H25.8851V22.4513C25.8851 22.0277 26.0704 21.7894 26.4145 21.7894C26.5205 21.7894 26.6529 21.8159 26.7588 21.8424L26.9177 21.3129C26.8118 21.2864 26.6529 21.2864 26.547 21.2864ZM19.4516 22.6101C19.4516 23.3779 19.9811 23.9339 20.8019 23.9339C21.1725 23.9339 21.4372 23.8545 21.7019 23.6427L21.4372 23.1926C21.2254 23.3515 21.0137 23.4308 20.7753 23.4308C20.3253 23.4308 20.0076 23.1132 20.0076 22.6101C20.0076 22.1336 20.3253 21.8158 20.7753 21.7894C21.0137 21.7894 21.2254 21.8688 21.4372 22.0277L21.7019 21.5776C21.4372 21.3657 21.1725 21.2864 20.8019 21.2864C19.9811 21.2864 19.4516 21.8424 19.4516 22.6101ZM24.5878 22.6101V21.3393H24.0319V21.657C23.8465 21.4188 23.5818 21.2864 23.2376 21.2864C22.5228 21.2864 21.9668 21.8424 21.9668 22.6101C21.9668 23.3779 22.5228 23.9339 23.2376 23.9339C23.6082 23.9339 23.873 23.8016 24.0319 23.5632V23.8809H24.5878V22.6101ZM22.5492 22.6101C22.5492 22.16 22.8404 21.7894 23.3169 21.7894C23.767 21.7894 24.0848 22.1336 24.0848 22.6101C24.0848 23.0602 23.767 23.4308 23.3169 23.4308C22.8404 23.4043 22.5492 23.0602 22.5492 22.6101ZM15.9039 21.2864C15.1626 21.2864 14.633 21.8158 14.633 22.6101C14.633 23.4044 15.1625 23.9339 15.9304 23.9339C16.301 23.9339 16.6717 23.828 16.963 23.5898L16.6981 23.1926C16.4863 23.3515 16.2216 23.4574 15.9569 23.4574C15.6127 23.4574 15.2685 23.2985 15.189 22.8483H17.0689V22.6367C17.0954 21.8158 16.6189 21.2864 15.9039 21.2864ZM15.9038 21.7629C16.2479 21.7629 16.4863 21.9748 16.5392 22.3719H15.2154C15.2684 22.0277 15.5067 21.7629 15.9038 21.7629ZM29.6974 22.6101V20.3333H29.1415V21.657C28.9561 21.4188 28.6914 21.2864 28.3472 21.2864C27.6324 21.2864 27.0764 21.8424 27.0764 22.6101C27.0764 23.3779 27.6324 23.9339 28.3472 23.9339C28.7179 23.9339 28.9826 23.8016 29.1415 23.5632V23.8809H29.6974V22.6101ZM27.6589 22.6101C27.6589 22.16 27.95 21.7894 28.4266 21.7894C28.8767 21.7894 29.1944 22.1336 29.1944 22.6101C29.1944 23.0602 28.8767 23.4308 28.4266 23.4308C27.95 23.4043 27.6589 23.0602 27.6589 22.6101ZM9.07311 22.6101V21.3393H8.51713V21.657C8.33176 21.4188 8.06704 21.2864 7.72284 21.2864C7.00803 21.2864 6.45205 21.8424 6.45205 22.6101C6.45205 23.3779 7.00803 23.9339 7.72284 23.9339C8.09357 23.9339 8.3583 23.8016 8.51713 23.5632V23.8809H9.07311V22.6101ZM7.00803 22.6101C7.00803 22.16 7.29928 21.7894 7.77578 21.7894C8.22588 21.7894 8.54366 22.1336 8.54366 22.6101C8.54366 23.0602 8.22588 23.4308 7.77578 23.4308C7.29928 23.4043 7.00803 23.0602 7.00803 22.6101Z" fill="#F5F5F5"/>
<path id="Vector_2" d="M11.5884 2.03857H19.9281V17.0236H11.5884V2.03857Z" fill="#FF5F00"/>
<path id="Vector_3" d="M12.118 9.53114C12.118 6.48651 13.5476 3.78597 15.745 2.03855C14.1302 0.767759 12.0916 0 9.86768 0C4.5989 0 0.336426 4.26247 0.336426 9.53114C0.336426 14.7998 4.5989 19.0623 9.86756 19.0623C12.0915 19.0623 14.13 18.2945 15.745 17.0236C13.5476 15.3027 12.118 12.5758 12.118 9.53114Z" fill="#EB001B"/>
<path id="Vector_4" d="M31.1801 9.53114C31.1801 14.7997 26.9176 19.0623 21.649 19.0623C19.425 19.0623 17.3865 18.2945 15.7715 17.0236C17.9954 15.2763 19.3986 12.5758 19.3986 9.53114C19.3986 6.48651 17.9689 3.78597 15.7715 2.03855C17.3864 0.767759 19.425 0 21.649 0C26.9176 0 31.1801 4.28901 31.1801 9.53114Z" fill="#F79E1B"/>
</g>
<defs>
<clipPath id="clip0_777_665">
<rect width="30.88" height="24" fill="white" transform="translate(0.333496)"/>
</clipPath>
</defs>
</svg>
