<svg width="41" height="24" viewBox="0 0 41 24" fill="none" xmlns="http://www.w3.org/2000/svg">
<path id="Vector" d="M15.3846 23.964C10.566 23.5427 6.31032 21.7555 3.54229 18.9875C1.96244 17.4109 1.00465 15.6994 0.573483 13.6818C0.376002 12.7635 0.376002 11.2429 0.576775 10.3148C1.17909 7.51052 2.98934 5.05846 5.84295 3.18568C12.35 -1.07992 22.3195 -1.06018 28.7673 3.23505C29.623 3.80445 30.176 4.25866 30.9527 5.02225C31.9303 5.98662 32.6181 6.9477 33.3422 8.3564C33.3686 8.40906 33.5035 8.47489 33.6385 8.50122C34.096 8.59667 34.7049 8.95214 35.1953 9.40963C35.5771 9.7651 35.87 10.1535 36.5974 11.2528C37.3314 12.362 40.6491 17.4833 40.8498 17.8191C40.9288 17.9507 40.7741 18.1581 40.5997 18.1581C40.4746 18.1581 40.389 18.0758 40.2047 17.7861C40.0764 17.5821 39.2305 16.2688 38.3254 14.8667C35.1229 9.90992 34.9517 9.67953 34.0598 9.2319L33.5924 8.99821H32.2166C30.8408 8.99821 30.8408 8.99821 30.8079 9.14303C30.6269 9.93625 30.5907 10.1304 30.6302 10.1666C30.6565 10.1897 31.4366 10.634 32.3647 11.1541L34.0532 12.0987L33.9479 12.3192C33.8886 12.441 33.8228 12.5397 33.7997 12.5397C33.7767 12.5397 32.3548 11.7531 30.64 10.7887C28.9252 9.82764 27.4211 9.01138 27.2993 8.97847C26.8122 8.84352 26.0618 9.3833 26.0618 9.87042C26.0618 10.3641 26.2066 10.5057 29.2215 12.9742C31.1008 14.5145 32.1771 15.4394 32.3417 15.6566C32.6412 16.0549 32.944 16.6407 33.2205 17.3616C33.7109 18.632 34.5074 19.3397 35.8141 19.6688L36.2452 19.7774L36.209 20.0111C36.1893 20.1395 36.1629 20.258 36.1465 20.2744C36.0905 20.3369 35.2249 20.0605 34.7246 19.8202C33.9413 19.445 33.4015 18.9085 32.8716 17.9737C32.8683 17.9672 32.5589 18.0725 32.1903 18.2074C31.532 18.4477 31.4991 18.4675 30.877 19.0764C28.2209 21.6699 24.4095 23.3255 19.8115 23.8883C19.0578 23.9936 16.1811 24.0364 15.3846 23.964ZM19.9629 23.1675C22.0726 22.8877 23.7117 22.4697 25.4232 21.7687C27.2203 21.0314 28.9187 19.9749 30.1035 18.8493L30.5709 18.4049L29.3926 17.8421C28.1353 17.2398 28.0102 17.141 27.849 16.6045C27.7469 16.2655 27.8621 15.9035 28.1847 15.5579L28.4348 15.2847L27.8885 14.87C27.4573 14.5409 27.3224 14.3993 27.2368 14.1821C27.1018 13.8299 27.1512 13.4481 27.3684 13.142L27.533 12.9083L25.8083 12.6055C24.8604 12.4377 23.975 12.2698 23.8434 12.2303C23.5834 12.1546 23.3234 11.8584 23.2542 11.5721C23.218 11.4174 24.0639 7.29 24.2515 6.70085C24.3371 6.43754 24.6958 6.11828 24.969 6.06891C25.2554 6.01624 30.3372 6.9082 30.5907 7.05631C30.9922 7.29 31.1173 7.66521 30.9922 8.24449L30.9396 8.48476H31.2193C31.374 8.48476 31.7394 8.46501 32.0323 8.44197L32.5655 8.39919L32.3022 7.90878C31.509 6.43096 30.0641 4.93668 28.2834 3.75179C27.4507 3.19884 25.6767 2.32334 24.607 1.94154C23.0864 1.39847 21.2465 0.99034 19.479 0.806024C18.5081 0.703992 15.9705 0.707283 15.0291 0.809315C12.7745 1.05288 10.7273 1.56304 8.93683 2.32663C4.78971 4.09409 2.00193 7.0234 1.28771 10.3608C1.1001 11.233 1.08694 12.7602 1.25809 13.5535C1.63659 15.3077 2.45943 16.8251 3.79901 18.2371C6.53084 21.1137 10.7043 22.8845 15.7071 23.2827C16.3786 23.3354 19.2816 23.2564 19.9629 23.1675ZM19.0512 20.0276C18.7944 19.9519 18.5311 19.6458 18.4752 19.3528C18.439 19.1619 18.4818 19.0303 18.7549 18.5004C19.8608 16.361 20.3414 14.3928 20.3414 12.0065C20.3414 9.69927 19.9168 7.90219 18.8603 5.74964C18.6332 5.28885 18.4489 4.85769 18.4489 4.79515C18.4489 4.56475 18.6397 4.23233 18.8471 4.10396C19.1302 3.92623 19.6074 3.95915 19.8378 4.17308C19.9267 4.25537 20.1538 4.63058 20.3447 5.0058C21.1017 6.4902 21.6184 8.11942 21.8752 9.81447C22.0331 10.8644 22.0661 12.8524 21.9377 13.8135C21.704 15.5842 21.2366 17.1674 20.4862 18.7143C20.032 19.649 19.7489 20.0341 19.512 20.0341C19.4659 20.0341 19.3869 20.0473 19.3408 20.0605C19.2947 20.0736 19.1631 20.0605 19.0512 20.0276ZM15.9737 18.4181C15.5788 18.3029 15.2924 17.8158 15.4076 17.4537C15.434 17.3648 15.6216 16.96 15.8223 16.5519C16.6682 14.8239 17.0204 12.9742 16.8493 11.1573C16.7077 9.66307 16.4411 8.72174 15.7664 7.34595C15.3155 6.42108 15.2924 6.27955 15.5557 5.90434C15.8059 5.54887 16.4312 5.49292 16.7571 5.79243C16.9842 5.99979 17.6918 7.47761 17.965 8.31361C18.8669 11.0784 18.7286 14.0504 17.5733 16.7658C16.9776 18.1581 16.5596 18.5892 15.9737 18.4181ZM12.8009 16.7856C12.5573 16.677 12.3467 16.4169 12.2874 16.1569C12.2512 15.9989 12.3138 15.8212 12.6034 15.2353C13.6698 13.0762 13.6797 10.9994 12.6396 8.8896C12.1821 7.96473 12.1722 7.78041 12.5573 7.41507C12.7482 7.23405 12.8305 7.20442 13.0971 7.20442C13.548 7.20442 13.7817 7.43153 14.1832 8.25766C14.802 9.52812 15.0555 10.6307 15.0522 12.0427C15.0489 13.4942 14.8119 14.4915 14.1536 15.8311C13.7751 16.598 13.5875 16.802 13.209 16.8514C13.0938 16.8613 12.9095 16.8349 12.8009 16.7856ZM9.83866 15.265C9.64447 15.186 9.42395 14.9227 9.35812 14.6923C9.28571 14.4355 9.34495 14.2315 9.63459 13.7542C10.0098 13.1387 10.0954 12.8096 10.0954 12.0065C10.0954 11.2034 10.0098 10.871 9.63459 10.2588C9.50623 10.0514 9.38116 9.80131 9.35154 9.70257C9.22976 9.29773 9.56877 8.80073 10.023 8.71516C10.4081 8.64275 10.6714 8.8139 11.0268 9.36685C12.0504 10.9664 12.0504 13.0992 11.0268 14.6857C10.6648 15.2419 10.2632 15.4394 9.83866 15.265ZM31.9006 17.7466C32.2429 17.6249 32.5392 17.5097 32.5589 17.4899C32.5787 17.4702 32.5128 17.2529 32.4108 17.0028C32.2067 16.4926 32.2396 16.5058 31.509 16.644C30.7223 16.7954 30.2648 16.6605 29.4025 16.0253C29.1688 15.8508 28.9252 15.7093 28.866 15.7093C28.8035 15.7093 28.6718 15.7982 28.5665 15.9101C28.346 16.147 28.313 16.5157 28.4908 16.7362C28.6488 16.9271 30.8112 17.9573 31.0679 17.9639C31.1831 17.9672 31.555 17.8684 31.9006 17.7466ZM31.5583 16.0911C31.8776 16.0253 31.9138 16.0055 31.8578 15.9002C31.7953 15.785 28.8035 13.3033 28.5434 13.1486C28.3295 13.0235 28.1551 13.0532 27.9773 13.2441C27.4573 13.8003 27.5198 13.9188 28.866 14.949C30.4919 16.1964 30.6664 16.2688 31.5583 16.0911ZM27.5429 12.3291C27.5429 12.3126 27.2039 12.0197 26.7892 11.6807C25.7655 10.8381 25.545 10.5221 25.545 9.89676C25.545 9.37672 25.8939 8.87314 26.4534 8.5835C26.7299 8.43868 27.2269 8.3959 27.5067 8.48805C27.7041 8.55388 28.5994 9.03771 29.837 9.74864L30.097 9.90005L30.3109 8.87973C30.5314 7.83636 30.5347 7.55989 30.3307 7.49736C30.2681 7.47761 29.0734 7.26038 27.6778 7.01353C25.1961 6.57577 24.923 6.54944 24.8078 6.73705C24.7452 6.83579 23.8006 11.2133 23.8006 11.3976C23.8006 11.4898 23.8467 11.605 23.9059 11.6543C23.9619 11.7037 24.7683 11.8782 25.6964 12.0427C27.4869 12.3653 27.5429 12.3751 27.5429 12.3291Z" fill="#F5F5F5"/>
</svg>
