<svg width="75" height="24" viewBox="0 0 75 24" fill="none" xmlns="http://www.w3.org/2000/svg">
<path id="Vector" d="M38.6506 7.67252C38.6082 11.0158 41.6301 12.8814 43.9065 13.9907C46.2453 15.1288 47.0309 15.8586 47.0216 16.8765C47.0042 18.434 45.156 19.1215 43.4266 19.1482C40.4093 19.1949 38.655 18.3336 37.2603 17.6821L36.1733 22.7682C37.5727 23.413 40.1637 23.9753 42.8506 24C49.1578 24 53.2841 20.8866 53.3064 16.0595C53.3311 9.93323 44.8326 9.59414 44.8907 6.85586C44.9107 6.02555 45.703 5.1395 47.4391 4.91421C48.2984 4.80041 50.6706 4.71331 53.3601 5.95181L54.4157 1.03092C52.9694 0.504284 51.1105 0 48.7961 0C42.8596 0 38.6843 3.15576 38.6506 7.67252ZM64.5589 0.423864C63.4072 0.423864 62.4366 1.09566 62.0035 2.12658L52.994 23.6386H59.2966L60.5507 20.1724H68.2523L68.9798 23.6386H74.5348L69.6873 0.423864H64.5589ZM65.4406 6.69502L67.2594 15.4124H62.2781L65.4406 6.69502ZM31.0091 0.424154L26.0412 23.6383H32.047L37.0126 0.423574L31.0091 0.424154ZM22.1245 0.424154L15.8734 16.2247L13.3447 2.78967C13.048 1.28988 11.8763 0.423864 10.5751 0.423864H0.356506L0.213379 1.09798C2.31122 1.5532 4.69473 2.28741 6.13877 3.07302C7.0225 3.55291 7.27449 3.97242 7.56481 5.11279L12.3542 23.6386H18.7008L28.4311 0.423864L22.1245 0.424154Z" fill="#F5F5F5"/>
</svg>
